<?xml version="1.0" encoding="UTF-8"?>
<svg version="1.1" xmlns="http://www.w3.org/2000/svg" width="328" height="290">
<path d="M0 0 C14.59152313 11.59156012 22.87500241 26.91668583 25.1875 45.3125 C27.34491354 65.58003282 17.92477745 84.84867458 7.1875 101.3125 C6.58292969 102.03050781 5.97835937 102.74851562 5.35546875 103.48828125 C4.00165881 105.21641209 4.00165881 105.21641209 4.2734375 107.1953125 C5.51170394 110.06343392 7.11734301 112.56295192 8.8125 115.1875 C17.32767271 128.73664246 24.44377736 143.04356723 25.1875 159.3125 C25.2390625 159.97894531 25.290625 160.64539063 25.34375 161.33203125 C26.08299126 177.93415779 19.45069368 193.40169762 8.69140625 205.78125 C-4.38164882 218.99706854 -21.20863033 226.47170552 -39.75 226.75 C-53.80581763 226.65607931 -64.65616977 222.09453051 -75 212.6875 C-84.48157752 202.78956578 -86.94785955 190.37863734 -87.5 177.1875 C-87.54705078 176.33285156 -87.59410156 175.47820312 -87.64257812 174.59765625 C-87.87239135 169.69246254 -87.86526298 165.12330779 -86.8125 160.3125 C-83.97980334 158.89615167 -81.33783562 158.9661995 -78.1875 158.75 C-76.99898437 158.66621094 -75.81046875 158.58242187 -74.5859375 158.49609375 C-73.67070312 158.43550781 -72.75546875 158.37492188 -71.8125 158.3125 C-71.83606567 156.8287085 -71.83606567 156.8287085 -71.86010742 155.31494141 C-71.9143346 151.65112423 -71.94882336 147.98734263 -71.97729492 144.32324219 C-71.99239814 142.73626749 -72.01288223 141.14933463 -72.03881836 139.5625 C-72.07513595 137.28374927 -72.09221023 135.00554942 -72.10546875 132.7265625 C-72.12869453 131.65929428 -72.12869453 131.65929428 -72.15238953 130.57046509 C-72.15307617 128.56884766 -72.15307617 128.56884766 -71.8125 125.3125 C-68.21852586 122.91651724 -65.66454241 123.05441051 -61.51953125 123.1171875 C-60.22764893 123.12218262 -58.9357666 123.12717773 -57.60473633 123.13232422 C-55.96142334 123.15053223 -54.31811035 123.16874023 -52.625 123.1875 C-44.7978125 123.249375 -44.7978125 123.249375 -36.8125 123.3125 C-36.8125 112.4225 -36.8125 101.5325 -36.8125 90.3125 C-46.83458169 90.3915223 -46.83458169 90.3915223 -56.85644531 90.49267578 C-58.72961426 90.50016846 -58.72961426 90.50016846 -60.640625 90.5078125 C-61.9184082 90.51828613 -63.19619141 90.52875977 -64.51269531 90.53955078 C-67.8125 90.3125 -67.8125 90.3125 -71.8125 88.3125 C-71.8125 77.4225 -71.8125 66.5325 -71.8125 55.3125 C-76.1025 54.9825 -80.3925 54.6525 -84.8125 54.3125 C-90.23678991 47.08011345 -88.057789 36.32505124 -87.125 27.625 C-85.34184324 15.77443736 -80.79057896 5.14492421 -71.45703125 -2.65625 C-49.4598672 -18.75339951 -21.5424066 -16.24131285 0 0 Z " fill="#6466F7" transform="translate(257.8125,40.6875)"/>
<path d="M0 0 C11.53057243 11.19919086 15.44575069 24.76843193 15.85205078 40.52368164 C15.85962402 41.3614917 15.86719727 42.19930176 15.875 43.0625 C15.88515137 43.86872803 15.89530273 44.67495605 15.90576172 45.50561523 C15.8588168 48.6135673 15.74238774 51.16182972 14.29711914 53.94995117 C11.70418375 56.45982549 9.80516232 56.34708979 6.25 56.5 C5.16332031 56.55671875 4.07664062 56.6134375 2.95703125 56.671875 C2.12558594 56.69765625 1.29414063 56.7234375 0.4375 56.75 C0.43339111 57.70366455 0.42928223 58.6573291 0.42504883 59.63989258 C0.40327034 63.17950429 0.34899699 66.71800225 0.28491211 70.25708008 C0.26172035 71.78854698 0.24733356 73.32017363 0.24194336 74.85180664 C0.23266108 77.05456212 0.19169732 79.2548014 0.14453125 81.45703125 C0.1484639 82.14150833 0.15239655 82.82598541 0.15644836 83.53120422 C0.09692383 85.47192383 0.09692383 85.47192383 -0.5625 88.75 C-4.20908239 92.08709384 -7.59626355 92.10638198 -12.39453125 92.04296875 C-13.55960205 92.03547607 -14.72467285 92.0279834 -15.92504883 92.02026367 C-17.39353271 91.99295166 -18.8620166 91.96563965 -20.375 91.9375 C-25.056875 91.875625 -29.73875 91.81375 -34.5625 91.75 C-34.5625 102.31 -34.5625 112.87 -34.5625 123.75 C-24.12157211 123.99961243 -24.12157211 123.99961243 -13.68017578 124.22802734 C-11.73860596 124.28144287 -11.73860596 124.28144287 -9.7578125 124.3359375 C-8.73675415 124.35297729 -8.73675415 124.35297729 -7.69506836 124.37036133 C-2.7906436 124.5218564 -2.7906436 124.5218564 -0.5625 126.75 C-0.38754394 129.25920846 -0.33080431 131.65624941 -0.3671875 134.1640625 C-0.3700174 134.89370209 -0.37284729 135.62334167 -0.37576294 136.37509155 C-0.38696998 138.70856028 -0.4120749 141.04164703 -0.4375 143.375 C-0.44752915 144.95572363 -0.45665511 146.53645327 -0.46484375 148.1171875 C-0.48691095 151.99493914 -0.52144385 155.87240478 -0.5625 159.75 C0.35273438 159.81058594 1.26796875 159.87117187 2.2109375 159.93359375 C3.39945312 160.01738281 4.58796875 160.10117188 5.8125 160.1875 C6.99585938 160.26871094 8.17921875 160.34992188 9.3984375 160.43359375 C12.4375 160.75 12.4375 160.75 14.4375 161.75 C18.35195641 173.49336924 14.88269713 191.50959706 10.4375 202.75 C8.74877368 206.07864552 6.83266843 208.89444639 4.4375 211.75 C3.72013672 212.66652344 3.72013672 212.66652344 2.98828125 213.6015625 C-4.07249922 221.67610743 -15.98025077 226.89582742 -26.5625 227.75 C-44.1904932 228.88728988 -61.1969091 224.39029147 -74.64746094 212.6159668 C-77.03569413 210.40075557 -79.30371308 208.09771554 -81.5625 205.75 C-82.16449219 205.16734375 -82.76648438 204.5846875 -83.38671875 203.984375 C-94.52161461 192.41109742 -97.58005512 176.19850581 -97.5625 160.75 C-96.70219607 142.85567828 -88.74601567 125.95539782 -77.78515625 112.0390625 C-76.37660111 109.83853093 -76.37660111 109.83853093 -76.57421875 107.41015625 C-77.94672446 103.71578318 -80.0471647 100.76691235 -82.3125 97.5625 C-94.51243883 79.70308512 -100.18263896 60.40600256 -96.4375 38.75 C-93.44641914 23.1982202 -84.18564392 10.17477612 -71.5625 0.75 C-49.69473351 -13.54916228 -20.94113789 -18.94047607 0 0 Z " fill="#FA6601" transform="translate(152.5625,39.25)"/>
<path d="M0 0 C14.59152313 11.59156012 22.87500241 26.91668583 25.1875 45.3125 C27.47941579 66.84359624 16.8773337 88.63334732 4.1875 105.3125 C3.49169733 106.63086295 2.81525567 107.96041086 2.1875 109.3125 C1.630625 108.384375 1.07375 107.45625 0.5 106.5 C-1.5187439 103.27238769 -1.5187439 103.27238769 -4.19921875 101.90234375 C-7.08114296 100.14906549 -8.78956555 98.27344462 -10.9375 95.6875 C-13.77993929 92.16563554 -13.77993929 92.16563554 -17.8125 90.3125 C-18.1425 89.6525 -18.4725 88.9925 -18.8125 88.3125 C-20.82919827 87.17899466 -20.82919827 87.17899466 -22.8125 86.3125 C-22.8125 85.6525 -22.8125 84.9925 -22.8125 84.3125 C-23.4725 84.3125 -24.1325 84.3125 -24.8125 84.3125 C-26.47916667 82.64583333 -28.14583333 80.97916667 -29.8125 79.3125 C-30.59625 78.879375 -31.38 78.44625 -32.1875 78 C-34.83154684 76.3002556 -36.25984804 74.71380424 -38.25 72.3125 C-41.18642766 68.8329911 -43.64847372 67.22795209 -47.8125 65.3125 C-50.11617712 63.57758153 -52.34620147 61.77387044 -54.56640625 59.93359375 C-58.59320195 57.02729772 -62.3112457 56.07647132 -67.2265625 55.8203125 C-68.23460937 55.75457031 -69.24265625 55.68882813 -70.28125 55.62109375 C-72.39276599 55.49827042 -74.5047802 55.38374264 -76.6171875 55.27734375 C-77.62265625 55.20902344 -78.628125 55.14070313 -79.6640625 55.0703125 C-81.03812256 54.99514404 -81.03812256 54.99514404 -82.43994141 54.91845703 C-84.8125 54.3125 -84.8125 54.3125 -86.61157227 52.46166992 C-91.00708159 44.59550432 -87.54176885 28.55354685 -85.8125 20.3125 C-81.65527805 6.62289804 -73.95216503 -2.06411558 -61.55859375 -8.9375 C-41.55692284 -18.66997672 -17.18189541 -12.95382377 0 0 Z " fill="#02C7FA" transform="translate(257.8125,40.6875)"/>
<path d="M0 0 C11.53057243 11.19919086 15.44575069 24.76843193 15.85205078 40.52368164 C15.85962402 41.3614917 15.86719727 42.19930176 15.875 43.0625 C15.88515137 43.86872803 15.89530273 44.67495605 15.90576172 45.50561523 C15.85730913 48.71338113 15.63790216 51.31590855 14.28515625 54.24609375 C11.69669925 56.35297735 9.74204116 56.35421142 6.4375 56.5 C5.385625 56.55671875 4.33375 56.6134375 3.25 56.671875 C1.31307212 56.72567855 -0.624825 56.75 -2.5625 56.75 C-2.8925 56.42 -3.2225 56.09 -3.5625 55.75 C-18.11112541 54.71969442 -30.97382049 68.11630401 -41.5625 76.75 C-42.17689941 77.24580566 -42.79129883 77.74161133 -43.42431641 78.25244141 C-54.01807879 86.82548045 -63.95505539 96.16474183 -72.5625 106.75 C-75.49891813 106.42373132 -76.46777086 105.85393359 -78.4921875 103.6328125 C-92.44821913 83.84775561 -100.58799746 63.25783661 -96.4375 38.75 C-93.45311346 23.19919473 -84.18215252 10.17216935 -71.5625 0.75 C-49.69473351 -13.54916228 -20.94113789 -18.94047607 0 0 Z " fill="#FCC804" transform="translate(152.5625,39.25)"/>
<path d="M0 0 C1.67724609 1.08740234 1.67724609 1.08740234 3 3 C3.59098773 7.41728967 3.51500445 11.85430336 3.50097656 16.30615234 C3.50000303 18.49319624 3.54164571 20.67674317 3.5859375 22.86328125 C3.59114393 24.25259685 3.5938327 25.64192465 3.59375 27.03125 C3.60083984 28.29517578 3.60792969 29.55910156 3.61523438 30.86132812 C3 34 3 34 0.88989258 35.91723633 C-2.54058476 37.20254232 -5.16991643 37.34136674 -8.83203125 37.29296875 C-9.99710205 37.28547607 -11.16217285 37.2779834 -12.36254883 37.27026367 C-13.83103271 37.24295166 -15.2995166 37.21563965 -16.8125 37.1875 C-21.494375 37.125625 -26.17625 37.06375 -31 37 C-31 47.56 -31 58.12 -31 69 C-20.55907211 69.24961243 -20.55907211 69.24961243 -10.11767578 69.47802734 C-8.17610596 69.53144287 -8.17610596 69.53144287 -6.1953125 69.5859375 C-5.51460693 69.59729736 -4.83390137 69.60865723 -4.13256836 69.62036133 C0.7718564 69.7718564 0.7718564 69.7718564 3 72 C3.21169748 74.48542247 3.3039953 76.85674843 3.30078125 79.34375 C3.30506638 80.06864624 3.3093515 80.79354248 3.31376648 81.54040527 C3.31951167 83.07363846 3.32000864 84.6068989 3.31567383 86.14013672 C3.31251206 88.49103044 3.33597461 90.84066808 3.36132812 93.19140625 C3.36360087 94.67968591 3.36430473 96.16796896 3.36328125 97.65625 C3.372491 98.36148804 3.38170074 99.06672607 3.39118958 99.79333496 C3.37231445 101.77539063 3.37231445 101.77539063 3 105 C-0.70516361 107.47010907 -2.23344405 107.26171379 -6.4921875 106.65234375 C-11.24653601 105.4156207 -14.99233762 102.76506315 -19 100 C-19.80727539 99.44747559 -19.80727539 99.44747559 -20.63085938 98.88378906 C-38.86916062 86.34366894 -56.72255581 71.85456882 -70 54 C-68.39641306 50.15503586 -65.81320953 47.37166922 -63 44.375 C-62.50798096 43.84720947 -62.01596191 43.31941895 -61.5090332 42.77563477 C-60.01216604 41.17783901 -58.50677895 39.58844446 -57 38 C-55.78376953 36.70255859 -55.78376953 36.70255859 -54.54296875 35.37890625 C-48.42680977 29.03960383 -41.76614324 23.67726886 -34.77148438 18.36132812 C-33.05186407 17.03985585 -31.35923498 15.6904525 -29.671875 14.328125 C-10.36683058 -1.15187006 -10.36683058 -1.15187006 0 0 Z " fill="#F70202" transform="translate(149,94)"/>
<path d="M0 0 C11.46796383 1.04254217 16.42651303 2.43190301 24.41015625 9.69140625 C26.42723457 11.35165499 28.58299253 12.0459181 31 13 C33.54884313 15.25246602 35.57771892 17.07626014 37 20.1875 C38.43451323 22.78755524 40.26160597 22.98106269 43 24 C45.8125 26 45.8125 26 48 28 C48 28.66 48 29.32 48 30 C48.66 30 49.32 30 50 30 C50.495 30.99 50.495 30.99 51 32 C53.01669827 33.13350534 53.01669827 33.13350534 55 34 C55 34.66 55 35.32 55 36 C55.5671875 36.06574219 56.134375 36.13148438 56.71875 36.19921875 C59.919644 37.32282024 61.30914919 39.25025496 63.5 41.8125 C66.74694704 45.58046073 66.74694704 45.58046073 70.21875 49.13671875 C72 51 72 51 73 54 C68.84677742 60.59629468 63.60126519 65.53376942 57.68359375 70.53515625 C56.25635351 71.7769546 54.90023649 73.09976351 53.5625 74.4375 C51.36314379 76.63685621 49.12847526 78.73811928 46.8125 80.8125 C46.13832031 81.41707031 45.46414062 82.02164063 44.76953125 82.64453125 C43 84 43 84 41 84 C41 84.66 41 85.32 41 86 C39.02 86.495 39.02 86.495 37 87 C37 87.66 37 88.32 37 89 C31.58823529 93 31.58823529 93 29 93 C29 93.66 29 94.32 29 95 C26.55502425 96.80298212 24.1264522 98.44544897 21.5625 100.0625 C20.87478516 100.52205078 20.18707031 100.98160156 19.47851562 101.45507812 C13.72971483 105.09687658 8.7322833 106 2 106 C1.67 106.33 1.34 106.66 1 107 C-1.01311449 107.39569108 -3.03597208 107.74252191 -5.0625 108.0625 C-6.71958984 108.32740234 -6.71958984 108.32740234 -8.41015625 108.59765625 C-9.26480469 108.73042969 -10.11945313 108.86320312 -11 109 C-11.85476404 128.42312194 -11.85476404 128.42312194 -7 147 C-6.67 147.99 -6.34 148.98 -6 150 C-6.99 149.67 -7.98 149.34 -9 149 C-10.1328125 146.671875 -10.1328125 146.671875 -11.125 143.75 C-11.45757812 142.79609375 -11.79015625 141.8421875 -12.1328125 140.859375 C-13.92341157 134.95523753 -14.31966359 129.2586696 -14.625 123.125 C-14.6765625 122.25230469 -14.728125 121.37960938 -14.78125 120.48046875 C-15.03576336 115.50248681 -15.08063535 110.88238865 -14 106 C-11.16730334 104.58365167 -8.52533562 104.6536995 -5.375 104.4375 C-4.18648437 104.35371094 -2.99796875 104.26992187 -1.7734375 104.18359375 C-0.85820312 104.12300781 0.05703125 104.06242187 1 104 C0.97643433 102.5162085 0.97643433 102.5162085 0.95239258 101.00244141 C0.8981654 97.33862423 0.86367664 93.67484263 0.83520508 90.01074219 C0.82010186 88.42376749 0.79961777 86.83683463 0.77368164 85.25 C0.73736405 82.97124927 0.72028977 80.69304942 0.70703125 78.4140625 C0.68380547 77.34679428 0.68380547 77.34679428 0.66011047 76.25796509 C0.65942383 74.25634766 0.65942383 74.25634766 1 71 C4.59397414 68.60401724 7.14795759 68.74191051 11.29296875 68.8046875 C12.58485107 68.80968262 13.8767334 68.81467773 15.20776367 68.81982422 C16.85107666 68.83803223 18.49438965 68.85624023 20.1875 68.875 C28.0146875 68.936875 28.0146875 68.936875 36 69 C36 58.11 36 47.22 36 36 C25.97791831 36.0790223 25.97791831 36.0790223 15.95605469 36.18017578 C14.08288574 36.18766846 14.08288574 36.18766846 12.171875 36.1953125 C10.8940918 36.20578613 9.61630859 36.21625977 8.29980469 36.22705078 C5 36 5 36 1 34 C0.67 22.78 0.34 11.56 0 0 Z " fill="#4749F5" transform="translate(185,95)"/>
<path d="M0 0 C5.445 0.495 5.445 0.495 11 1 C11 1.33 11 1.66 11 2 C9.02 2 7.04 2 5 2 C5 11.9 5 21.8 5 32 C15.23 32 25.46 32 36 32 C36 32.99 36 33.98 36 35 C36.99 35 37.98 35 39 35 C39.07405295 39.80546679 39.12855497 44.6106029 39.16479492 49.41650391 C39.17989911 51.05197941 39.20038389 52.68741429 39.22631836 54.32275391 C39.26263145 56.67100024 39.27970932 59.01871205 39.29296875 61.3671875 C39.31619453 62.46726639 39.31619453 62.46726639 39.33988953 63.58956909 C39.34057617 65.65185547 39.34057617 65.65185547 39 69 C35.31972624 71.45351584 33.35297006 71.29270644 28.9609375 71.37890625 C27.93874619 71.40439796 27.93874619 71.40439796 26.89590454 71.43040466 C24.72236341 71.48347824 22.54884119 71.5238187 20.375 71.5625 C18.19411286 71.60639599 16.01337509 71.65304005 13.83267212 71.70530701 C11.85912517 71.75188397 9.8853697 71.78935676 7.91162109 71.82641602 C5.1084626 71.67028001 5.1084626 71.67028001 4 73 C3.86554446 75.25529779 3.79631961 77.51453345 3.75390625 79.7734375 C3.72096355 81.169277 3.68775198 82.56511018 3.65429688 83.9609375 C3.60689211 86.16857477 3.56247888 88.37618714 3.52319336 90.58398438 C3.48346305 92.70991267 3.43191592 94.83530469 3.37890625 96.9609375 C3.3538501 98.23759277 3.32879395 99.51424805 3.30297852 100.82958984 C3 104 3 104 1 107 C-1.8203125 107.73046875 -1.8203125 107.73046875 -5.125 108.1875 C-6.22070312 108.34605469 -7.31640625 108.50460938 -8.4453125 108.66796875 C-9.70988281 108.83232422 -9.70988281 108.83232422 -11 109 C-11.85476404 128.42312194 -11.85476404 128.42312194 -7 147 C-6.67 147.99 -6.34 148.98 -6 150 C-6.99 149.67 -7.98 149.34 -9 149 C-10.1328125 146.671875 -10.1328125 146.671875 -11.125 143.75 C-11.45757812 142.79609375 -11.79015625 141.8421875 -12.1328125 140.859375 C-13.92341157 134.95523753 -14.31966359 129.2586696 -14.625 123.125 C-14.6765625 122.25230469 -14.728125 121.37960938 -14.78125 120.48046875 C-15.03576336 115.50248681 -15.08063535 110.88238865 -14 106 C-11.16730334 104.58365167 -8.52533562 104.6536995 -5.375 104.4375 C-4.18648437 104.35371094 -2.99796875 104.26992187 -1.7734375 104.18359375 C-0.85820312 104.12300781 0.05703125 104.06242187 1 104 C0.97643433 102.5162085 0.97643433 102.5162085 0.95239258 101.00244141 C0.8981654 97.33862423 0.86367664 93.67484263 0.83520508 90.01074219 C0.82010186 88.42376749 0.79961777 86.83683463 0.77368164 85.25 C0.73736405 82.97124927 0.72028977 80.69304942 0.70703125 78.4140625 C0.68380547 77.34679428 0.68380547 77.34679428 0.66011047 76.25796509 C0.65942383 74.25634766 0.65942383 74.25634766 1 71 C4.59397414 68.60401724 7.14795759 68.74191051 11.29296875 68.8046875 C12.58485107 68.80968262 13.8767334 68.81467773 15.20776367 68.81982422 C16.85107666 68.83803223 18.49438965 68.85624023 20.1875 68.875 C28.0146875 68.936875 28.0146875 68.936875 36 69 C36 58.11 36 47.22 36 36 C25.97791831 36.0790223 25.97791831 36.0790223 15.95605469 36.18017578 C14.08288574 36.18766846 14.08288574 36.18766846 12.171875 36.1953125 C10.8940918 36.20578613 9.61630859 36.21625977 8.29980469 36.22705078 C5 36 5 36 1 34 C0.67 22.78 0.34 11.56 0 0 Z " fill="#4C48B6" transform="translate(185,95)"/>
<path d="M0 0 C-0.52268466 2.76276177 -1.10869587 5.3260876 -2 8 C-2.66 8 -3.32 8 -4 8 C-4.1340625 8.58394531 -4.268125 9.16789062 -4.40625 9.76953125 C-5 12 -5 12 -6.5 15.6875 C-7.97068029 19.49270678 -8.49238715 23.06262443 -8.7890625 27.1171875 C-9 29 -9 29 -10 31 C-9.34 31.33 -8.68 31.66 -8 32 C-7.89972335 35.50968266 -8.24850368 38.57651675 -9 42 C-9.33944795 43.99897128 -9.67421616 45.99875639 -10 48 C-6.37 48 -2.74 48 1 48 C1 48.66 1 49.32 1 50 C2.14275391 49.94779297 2.14275391 49.94779297 3.30859375 49.89453125 C10.17200139 49.71459172 15.66535055 50.31257296 22 53 C22 53.66 22 54.32 22 55 C22.680625 55.226875 23.36125 55.45375 24.0625 55.6875 C31.09157616 58.82815105 36.58772442 63.85064021 41.25 69.9375 C45.33155131 74.90467093 50.64944978 78.4313185 56.875 79.9375 C57.90625 80.288125 58.9375 80.63875 60 81 C61.6875 84.5 61.6875 84.5 63 88 C64.96672915 89.1500831 64.96672915 89.1500831 67 90 C70 94.28571429 70 94.28571429 70 97 C71.98 97.495 71.98 97.495 74 98 C74 98.66 74 99.32 74 100 C74.99 100 75.98 100 77 100 C78.52179102 97.78544895 78.52179102 97.78544895 80 95 C81.37698144 93.04905688 82.77334982 91.11167156 84.1875 89.1875 C84.90292969 88.21167969 85.61835938 87.23585938 86.35546875 86.23046875 C87.16951172 85.12638672 87.16951172 85.12638672 88 84 C88.33 84.66 88.66 85.32 89 86 C87.64831589 88.30563816 86.25693953 90.48663543 84.75 92.6875 C81.59133511 97.3258549 79.06741259 101.77105711 77 107 C76.46375 106.2575 75.9275 105.515 75.375 104.75 C73.15583285 101.91397587 73.15583285 101.91397587 70.25 100.25 C66.4175648 97.59677563 63.7944684 94.49589782 60.83203125 90.92578125 C59.05699955 88.75823222 59.05699955 88.75823222 56 88 C55.67 87.34 55.34 86.68 55 86 C52.98330173 84.86649466 52.98330173 84.86649466 51 84 C51 83.34 51 82.68 51 82 C50.34 82 49.68 82 49 82 C47.33333333 80.33333333 45.66666667 78.66666667 44 77 C43.21625 76.566875 42.4325 76.13375 41.625 75.6875 C38.98095316 73.9877556 37.55265196 72.40130424 35.5625 70 C32.62607234 66.5204911 30.16402628 64.91545209 26 63 C23.69632288 61.26508153 21.46629853 59.46137044 19.24609375 57.62109375 C15.21929805 54.71479772 11.5012543 53.76397132 6.5859375 53.5078125 C5.57789063 53.44207031 4.56984375 53.37632813 3.53125 53.30859375 C1.41973401 53.18577042 -0.6922802 53.07124264 -2.8046875 52.96484375 C-3.81015625 52.89652344 -4.815625 52.82820313 -5.8515625 52.7578125 C-6.76760254 52.7077002 -7.68364258 52.65758789 -8.62744141 52.60595703 C-11 52 -11 52 -12.79907227 50.14916992 C-17.1899668 42.29126292 -13.73948593 26.23117568 -12 18 C-6.33103448 0 -6.33103448 0 0 0 Z " fill="#1EB7DA" transform="translate(184,43)"/>
<path d="M0 0 C0.99 1.485 0.99 1.485 2 3 C-1.71958362 2.01317169 -5.08018767 0.96543635 -8.625 -0.5625 C-14.16332892 -2.92141787 -19.21845023 -3.16390565 -25.1875 -3.125 C-25.9412793 -3.12089111 -26.69505859 -3.11678223 -27.47167969 -3.11254883 C-38.83293748 -3.34097376 -38.83293748 -3.34097376 -49 1 C-49.66 1 -50.32 1 -51 1 C-51 1.66 -51 2.32 -51 3 C-51.66 3 -52.32 3 -53 3 C-53 3.66 -53 4.32 -53 5 C-53.8971875 5.1546875 -53.8971875 5.1546875 -54.8125 5.3125 C-57.29861534 6.09385053 -58.22943442 7.14895416 -60 9 C-60.66 9 -61.32 9 -62 9 C-62.33 9.66 -62.66 10.32 -63 11 C-64.6476038 11.71247732 -66.31763529 12.37400383 -68 13 C-69.34050052 13.65213539 -70.67661368 14.31379969 -72 15 C-72 15.99 -72 16.98 -72 18 C-72.78375 18.763125 -73.5675 19.52625 -74.375 20.3125 C-77.17026918 22.78303969 -77.17026918 22.78303969 -78 26 C-79.23367942 29.70103827 -81.26809601 31.26809601 -84 34 C-87.42513833 41.87781816 -87.20838333 50.43721916 -87.25 58.875 C-87.270625 59.91269531 -87.29125 60.95039062 -87.3125 62.01953125 C-87.34424097 68.31217851 -87.05633117 74.35229355 -84 80 C-83.01 80.66 -82.02 81.32 -81 82 C-80.29947539 84.663063 -80.22255182 87.24035737 -80 90 C-79.01 90.33 -78.02 90.66 -77 91 C-76.33333333 92.66666667 -75.66666667 94.33333333 -75 96 C-73.515 96.495 -73.515 96.495 -72 97 C-71.93941406 97.60328125 -71.87882812 98.2065625 -71.81640625 98.828125 C-71.73261719 99.62734375 -71.64882812 100.4265625 -71.5625 101.25 C-71.48128906 102.03890625 -71.40007812 102.8278125 -71.31640625 103.640625 C-71.02365007 105.82364639 -70.57935581 107.8773182 -70 110 C-83.40333885 97.56923902 -89.62922266 78.68421756 -91.28515625 60.9453125 C-91.84799736 42.88545435 -86.22427895 27.33146873 -74 14 C-63.80299769 3.30991247 -48.34315714 -5.78239654 -33.36328125 -6.9609375 C-21.18565511 -7.16222058 -10.8641505 -5.85440818 0 0 Z " fill="#E8C132" transform="translate(146,34)"/>
<path d="M0 0 C12.96908978 11.9925017 21.20546251 33.61949233 22 51 C22.07734375 51.99966797 22.07734375 51.99966797 22.15625 53.01953125 C22.89549126 69.62165779 16.26319368 85.08919762 5.50390625 97.46875 C-7.56914882 110.68456854 -24.39613033 118.15920552 -42.9375 118.4375 C-58.48432639 118.33361642 -69.65141607 112.71375407 -80.46875 101.83203125 C-82 100 -82 100 -83 97 C-82.34 97 -81.68 97 -81 97 C-81 97.66 -81 98.32 -81 99 C-80.01 99.33 -79.02 99.66 -78 100 C-77.195625 100.969375 -76.39125 101.93875 -75.5625 102.9375 C-73.25812675 105.69150706 -72.15141529 106.64939345 -69 108 C-68.67 108.66 -68.34 109.32 -68 110 C-54.82406357 116.32444949 -38.32396268 118.14652288 -24.34375 113.28125 C-19.76253058 111.44380309 -15.36055673 109.30680715 -11 107 C-10.30229492 106.6788623 -9.60458984 106.35772461 -8.88574219 106.02685547 C-6.77883722 105.03970097 -6.77883722 105.03970097 -5.125 102.625 C-3 100 -3 100 -0.1875 98.1875 C6.96315799 93.28018569 11.0038353 87.03939845 14 79 C14.66 79 15.32 79 16 79 C16.185625 77.5459375 16.185625 77.5459375 16.375 76.0625 C16.76033505 73.26463247 17.35066143 70.60623875 18.0625 67.875 C20.90162988 54.79316308 17.6884878 43.05734836 14.55126953 30.34814453 C13.90208557 27.58293138 13.40821009 24.8105499 13 22 C12.34 22 11.68 22 11 22 C10.67 20.35 10.34 18.7 10 17 C9.34 17 8.68 17 8 17 C7.9175 16.05125 7.835 15.1025 7.75 14.125 C7.5025 13.09375 7.255 12.0625 7 11 C5.68352881 10.30062468 4.34977849 9.63270867 3 9 C2.25 6.375 2.25 6.375 2 4 C1.34 4 0.68 4 0 4 C-0.495 2.515 -0.495 2.515 -1 1 C-0.67 0.67 -0.34 0.34 0 0 Z " fill="#5F5CB1" transform="translate(261,149)"/>
<path d="M0 0 C7.53506308 3.22212051 12.67506934 10.97937571 15.96875 18.234375 C19.27439118 27.09950362 20.27040529 35.74276546 20.375 45.125 C20.39590698 46.35174438 20.39590698 46.35174438 20.41723633 47.60327148 C20.39021455 50.96976358 20.26407825 53.42333934 18.8515625 56.5078125 C16.25850138 58.59757905 14.29821578 58.60449048 11 58.75 C9.948125 58.80671875 8.89625 58.8634375 7.8125 58.921875 C5.87557212 58.97567855 3.937675 59 2 59 C1.67 58.67 1.34 58.34 1 58 C-12.67802621 56.99549379 -24.81072 69.03431127 -35 77 C-35 76.01 -35 75.02 -35 74 C-34.34 74 -33.68 74 -33 74 C-33 73.34 -33 72.68 -33 72 C-32.01 72 -31.02 72 -30 72 C-29.67 70.68 -29.34 69.36 -29 68 C-28.34 68 -27.68 68 -27 68 C-27 67.34 -27 66.68 -27 66 C-26.01 66 -25.02 66 -24 66 C-24 65.34 -24 64.68 -24 64 C-21.525 63.505 -21.525 63.505 -19 63 C-18.67 62.01 -18.34 61.02 -18 60 C-11.95061596 54.54941286 -5.43164141 54.56290123 2.3515625 54.921875 C6.07242751 55.00155091 9.36535386 54.80769914 13 54 C16.13748478 49.29377283 15.19650251 44.52588863 15 39 C14.97534668 38.30390625 14.95069336 37.6078125 14.92529297 36.890625 C14.84020958 34.69693222 14.73640821 32.50500377 14.625 30.3125 C14.5943042 29.60520752 14.5636084 28.89791504 14.53198242 28.16918945 C14.4296952 26.44004834 14.22394634 24.71762618 14 23 C13.34 22.67 12.68 22.34 12 22 C11.28499394 20.35349201 10.62555551 18.68252861 10 17 C7.19360404 10.87516391 4.08040163 5.36281357 0 0 Z " fill="#F5C41C" transform="translate(148,37)"/>
<path d="M0 0 C0.33 0.66 0.66 1.32 1 2 C0.2972722 3.70662466 -0.4141372 5.41046087 -1.1796875 7.08984375 C-2.41691244 9.97081039 -3.14579341 12.98515321 -4 16 C-5.29066185 19.68262204 -6.63782631 23.34329101 -8 27 C-8.66 27 -9.32 27 -10 27 C-9.979375 28.093125 -9.95875 29.18625 -9.9375 30.3125 C-10 34 -10 34 -11 37 C-11.25168473 40.05796942 -11.23128288 43.12023211 -11.25 46.1875 C-11.270625 47.01314453 -11.29125 47.83878906 -11.3125 48.68945312 C-11.34867436 54.42761167 -10.35034997 58.78782862 -8 64 C-7.60039063 64.98226562 -7.20078125 65.96453125 -6.7890625 66.9765625 C-4.39113456 72.43225091 -1.92334406 76.54647431 2 81 C2.67966676 82.66140763 3.34938905 84.32700041 4 86 C5.485 86.99 5.485 86.99 7 88 C7 88.99 7 89.98 7 91 C7.99 91 8.98 91 10 91 C10 91.66 10 92.32 10 93 C10.9075 93.2475 11.815 93.495 12.75 93.75 C16.13493865 95.05189948 17.60793414 96.35164137 20 99 C20.99 99.495 20.99 99.495 22 100 C22 100.66 22 101.32 22 102 C6.44898883 96.12095919 -4.02112596 83.60933828 -11 69 C-17.71723612 53.92717748 -15.80108531 34.85998222 -10.25 19.8125 C-4.22986084 4.22986084 -4.22986084 4.22986084 0 0 Z " fill="#D86924" transform="translate(70,158)"/>
<path d="M0 0 C2.12534659 0.14069196 4.25027529 0.28770921 6.375 0.4375 C7.55835938 0.51871094 8.74171875 0.59992188 9.9609375 0.68359375 C13 1 13 1 15 2 C18.91445641 13.74336924 15.44519713 31.75959706 11 43 C9.31127368 46.32864552 7.39516843 49.14444639 5 52 C4.28263672 52.91652344 4.28263672 52.91652344 3.55078125 53.8515625 C-3.50999922 61.92610743 -15.41775077 67.14582742 -26 68 C-37.92888389 68.76960541 -49.19309433 67.27779114 -60 62 C-57.50598068 61.07628914 -56.37563902 60.84532511 -53.875 61.875 C-44.26180749 65.63668402 -28.47175885 65.81593004 -18.625 62.625 C-15.00254539 61.12145149 -15.00254539 61.12145149 -12 59 C-10.00116131 58.65977214 -8.00109278 58.32670903 -6 58 C-2.12737764 56.63319211 -0.49943094 54.16594586 2 51 C2.66 51 3.32 51 4 51 C3.9175 50.236875 3.835 49.47375 3.75 48.6875 C3.8325 47.800625 3.915 46.91375 4 46 C4.61875 45.54625 5.2375 45.0925 5.875 44.625 C8.98439925 42.24722411 9.08993098 39.7616186 10 36 C10.53781971 34.58186842 11.07969048 33.16526844 11.625 31.75 C14.49032546 23.18311323 13.08835682 14.59582583 11 6 C7.34309779 5.25865185 3.68301024 4.59955981 0 4 C0 2.68 0 1.36 0 0 Z " fill="#D56621" transform="translate(152,199)"/>
<path d="M0 0 C13.36929442 1.91293561 26.3766277 14.3804525 36.44921875 22.82421875 C40.1669223 25.9340642 42.96485933 27.8224709 47.75 28.8125 C51.125 30.0625 51.125 30.0625 52.8125 33.5625 C53.245625 34.7175 53.67875 35.8725 54.125 37.0625 C56.09172915 38.2125831 56.09172915 38.2125831 58.125 39.0625 C61.125 43.34821429 61.125 43.34821429 61.125 46.0625 C63.105 46.5575 63.105 46.5575 65.125 47.0625 C65.125 47.7225 65.125 48.3825 65.125 49.0625 C66.115 49.0625 67.105 49.0625 68.125 49.0625 C69.64679102 46.84794895 69.64679102 46.84794895 71.125 44.0625 C72.50198144 42.11155688 73.89834982 40.17417156 75.3125 38.25 C76.02792969 37.27417969 76.74335938 36.29835937 77.48046875 35.29296875 C78.29451172 34.18888672 78.29451172 34.18888672 79.125 33.0625 C79.455 33.7225 79.785 34.3825 80.125 35.0625 C78.77331589 37.36813816 77.38193953 39.54913543 75.875 41.75 C72.71633511 46.3883549 70.19241259 50.83355711 68.125 56.0625 C67.58875 55.32 67.0525 54.5775 66.5 53.8125 C64.28083285 50.97647587 64.28083285 50.97647587 61.375 49.3125 C57.5425648 46.65927563 54.9194684 43.55839782 51.95703125 39.98828125 C50.18199955 37.82073222 50.18199955 37.82073222 47.125 37.0625 C46.795 36.4025 46.465 35.7425 46.125 35.0625 C44.10830173 33.92899466 44.10830173 33.92899466 42.125 33.0625 C42.125 32.4025 42.125 31.7425 42.125 31.0625 C41.465 31.0625 40.805 31.0625 40.125 31.0625 C38.45833333 29.39583333 36.79166667 27.72916667 35.125 26.0625 C34.34125 25.629375 33.5575 25.19625 32.75 24.75 C30.10595316 23.0502556 28.67765196 21.46380424 26.6875 19.0625 C23.75107234 15.5829911 21.28902628 13.97795209 17.125 12.0625 C14.82132288 10.32758153 12.59129853 8.52387044 10.37109375 6.68359375 C6.55909143 3.93232251 2.95752094 2.85347202 -1.6875 2.4375 C-2.87279297 2.32535156 -2.87279297 2.32535156 -4.08203125 2.2109375 C-4.96955078 2.13746094 -4.96955078 2.13746094 -5.875 2.0625 C-3.875 0.0625 -3.875 0.0625 0 0 Z " fill="#255EE5" transform="translate(192.875,93.9375)"/>
<path d="M0 0 C0.99 0.33 1.98 0.66 3 1 C3 11.56 3 22.12 3 33 C13.44092789 33.24961243 13.44092789 33.24961243 23.88232422 33.47802734 C25.82389404 33.53144287 25.82389404 33.53144287 27.8046875 33.5859375 C28.48539307 33.59729736 29.16609863 33.60865723 29.86743164 33.62036133 C34.7718564 33.7718564 34.7718564 33.7718564 37 36 C37.17495606 38.50920846 37.23169569 40.90624941 37.1953125 43.4140625 C37.1924826 44.14370209 37.18965271 44.87334167 37.18673706 45.62509155 C37.17553002 47.95856028 37.1504251 50.29164703 37.125 52.625 C37.11497085 54.20572363 37.10584489 55.78645327 37.09765625 57.3671875 C37.07558905 61.24493914 37.04105615 65.12240478 37 69 C34.20822431 66.20822431 34.68786516 64.36816428 34.5859375 60.4609375 C34.52792969 58.50800781 34.52792969 58.50800781 34.46875 56.515625 C34.43729237 55.13542138 34.40604509 53.75521296 34.375 52.375 C34.33682066 50.98695459 34.29776895 49.59893289 34.2578125 48.2109375 C34.16327057 44.80742815 34.07772103 41.40392835 34 38 C32.5162085 37.97812622 32.5162085 37.97812622 31.00244141 37.95581055 C27.33817081 37.8979103 23.67452015 37.82067848 20.01074219 37.73754883 C18.42393035 37.7042602 16.83699897 37.67624053 15.25 37.65356445 C12.97083516 37.62008922 10.69276959 37.5677814 8.4140625 37.51171875 C7.70255035 37.50532883 6.99103821 37.4989389 6.25796509 37.49235535 C4.25634766 37.43237305 4.25634766 37.43237305 1 37 C-1.41942217 33.37086675 -1.27328714 30.71387895 -1.23046875 26.5234375 C-1.22978142 25.43465805 -1.22978142 25.43465805 -1.2290802 24.32388306 C-1.22606284 22.79240276 -1.21819194 21.2609254 -1.20581055 19.72949219 C-1.18751434 17.37684349 -1.18530119 15.02458753 -1.18554688 12.671875 C-1.18063303 11.18489241 -1.1748053 9.6979125 -1.16796875 8.2109375 C-1.16685593 7.50367523 -1.1657431 6.79641296 -1.16459656 6.06771851 C-1.11606445 1.11606445 -1.11606445 1.11606445 0 0 Z " fill="#C11D1F" transform="translate(115,130)"/>
<path d="M0 0 C3.63 0.33 7.26 0.66 11 1 C11 1.33 11 1.66 11 2 C9.02 2 7.04 2 5 2 C5 11.9 5 21.8 5 32 C15.23 32 25.46 32 36 32 C36 32.66 36 33.32 36 34 C33.69 34 31.38 34 29 34 C29 34.66 29 35.32 29 36 C25.0833957 36.0580966 21.16690237 36.09362893 17.25 36.125 C16.13882813 36.14175781 15.02765625 36.15851563 13.8828125 36.17578125 C12.27792969 36.18544922 12.27792969 36.18544922 10.640625 36.1953125 C9.65610352 36.20578613 8.67158203 36.21625977 7.65722656 36.22705078 C5 36 5 36 1 34 C0.67 22.78 0.34 11.56 0 0 Z " fill="#4549DD" transform="translate(185,95)"/>
<path d="M0 0 C1.97747051 1.6970611 3.85437653 3.38094877 5.64453125 5.26953125 C5.31453125 5.92953125 4.98453125 6.58953125 4.64453125 7.26953125 C3.93167969 6.66625 3.21882813 6.06296875 2.484375 5.44140625 C-4.85630872 -0.68406334 -11.12035115 -5.27947226 -20.33984375 -8.01953125 C-22.35546875 -8.73046875 -22.35546875 -8.73046875 -25.35546875 -10.73046875 C-34.21027664 -12.55318651 -43.46756821 -13.89824937 -52.35546875 -11.73046875 C-53.37447266 -11.529375 -53.37447266 -11.529375 -54.4140625 -11.32421875 C-61.48975584 -9.89237524 -67.16063278 -7.47997473 -73.35546875 -3.73046875 C-75.00916232 -3.03224258 -76.67273889 -2.3554827 -78.35546875 -1.73046875 C-57.29148182 -25.60298727 -22.00961221 -17.93310732 0 0 Z " fill="#1FB7DA" transform="translate(261.35546875,43.73046875)"/>
<path d="M0 0 C10.62697471 9.37674239 15.11717048 23.25836738 16.15625 37.078125 C16.70521489 50.89374136 12.52410139 63.55736385 7 76 C5.36920044 71.98194565 6.76078934 69.41966084 8.375 65.5625 C14.25734922 51.38242354 13.79411419 33.55088566 9 19 C7.7803866 16.20868242 6.47873179 13.54617699 4.98828125 10.890625 C4 9 4 9 4 7 C3.34 7 2.68 7 2 7 C0 4 0 4 0 0 Z " fill="#30A2BD" transform="translate(267,51)"/>
<path d="M0 0 C0.66 0.33 1.32 0.66 2 1 C1.67 1.33 1.34 1.66 1 2 C0.93655415 4.32988329 0.94084647 6.66165759 0.97265625 8.9921875 C0.98530559 10.43359132 0.99766632 11.8749977 1.00976562 13.31640625 C1.03457701 15.59659711 1.06252429 17.87665676 1.09594727 20.15673828 C1.1261515 22.35189658 1.14392817 24.54688764 1.16015625 26.7421875 C1.17699463 28.0607373 1.19383301 29.37928711 1.21118164 30.73779297 C1 34 1 34 -1 37 C-3.8203125 37.73046875 -3.8203125 37.73046875 -7.125 38.1875 C-8.22070312 38.34605469 -9.31640625 38.50460938 -10.4453125 38.66796875 C-11.28835937 38.77753906 -12.13140625 38.88710937 -13 39 C-13.85476404 58.42312194 -13.85476404 58.42312194 -9 77 C-8.67 77.99 -8.34 78.98 -8 80 C-8.99 79.67 -9.98 79.34 -11 79 C-12.1328125 76.671875 -12.1328125 76.671875 -13.125 73.75 C-13.62386719 72.31914062 -13.62386719 72.31914062 -14.1328125 70.859375 C-15.92341157 64.95523753 -16.31966359 59.2586696 -16.625 53.125 C-16.6765625 52.25230469 -16.728125 51.37960938 -16.78125 50.48046875 C-17.03576336 45.50248681 -17.08063535 40.88238865 -16 36 C-13.16730334 34.58365167 -10.52533562 34.6536995 -7.375 34.4375 C-6.18648437 34.35371094 -4.99796875 34.26992187 -3.7734375 34.18359375 C-2.85820312 34.12300781 -1.94296875 34.06242187 -1 34 C-1.00523682 33.00556885 -1.01047363 32.0111377 -1.01586914 30.98657227 C-1.03392041 27.30966079 -1.04543246 23.63275325 -1.05493164 19.95581055 C-1.05997157 18.36205386 -1.0668035 16.76830181 -1.07543945 15.17456055 C-1.08751999 12.88849747 -1.09323155 10.60249533 -1.09765625 8.31640625 C-1.10281754 7.59973282 -1.10797882 6.88305939 -1.11329651 6.14466858 C-1.11349263 4.42936328 -1.06192007 2.71418734 -1 1 C-0.67 0.67 -0.34 0.34 0 0 Z " fill="#5F5EB1" transform="translate(187,165)"/>
<path d="M0 0 C3.5625 0.3125 3.5625 0.3125 5.25585938 1.39648438 C8.11096161 5.58311411 7.07905815 11.67372371 7.06347656 16.61865234 C7.06250303 18.80569624 7.10414571 20.98924317 7.1484375 23.17578125 C7.15364393 24.56509685 7.1563327 25.95442465 7.15625 27.34375 C7.16333984 28.60767578 7.17042969 29.87160156 7.17773438 31.17382812 C6.5625 34.3125 6.5625 34.3125 4.19848633 36.22753906 C1.15671953 37.47951754 -0.96658188 37.64679828 -4.25 37.5625 C-5.3740625 37.53671875 -6.498125 37.5109375 -7.65625 37.484375 C-14.25683308 37.1843485 -20.84722133 36.78625559 -27.4375 36.3125 C-27.4375 35.6525 -27.4375 34.9925 -27.4375 34.3125 C-16.8775 34.3125 -6.3175 34.3125 4.5625 34.3125 C4.0675 18.9675 4.0675 18.9675 3.5625 3.3125 C0.5925 2.9825 -2.3775 2.6525 -5.4375 2.3125 C-3.4375 0.3125 -3.4375 0.3125 0 0 Z " fill="#C31B15" transform="translate(145.4375,93.6875)"/>
<path d="M0 0 C0 4.25814993 -1.97857076 5.27862084 -4.9375 8.25 C-5.85402344 9.16265625 -6.77054688 10.0753125 -7.71484375 11.015625 C-10.37673327 14.49200721 -10.84228791 16.66546122 -11 21 C-10.67 21.99 -10.34 22.98 -10 24 C-9.4225 24.28875 -8.845 24.5775 -8.25 24.875 C-5.21233863 26.39383068 -3.3375365 28.54843733 -1 31 C-0.175 31.825 0.65 32.65 1.5 33.5 C3.21878157 35.21878157 4.92655693 36.94861781 6.625 38.6875 C8.97085755 41.11275676 8.97085755 41.11275676 12 43 C12 43.99 12 44.98 12 46 C12.61875 46.144375 13.2375 46.28875 13.875 46.4375 C16 47 16 47 18 48 C19.04808041 49.97522846 20.0520411 51.97481509 21 54 C16.85330959 52.33931088 13.93229924 49.3405787 10.75 46.3125 C9.58420359 45.21652148 8.41754041 44.12146421 7.25 43.02734375 C6.68925781 42.50124512 6.12851563 41.97514648 5.55078125 41.43310547 C3.66410538 39.6895936 1.71615516 38.02799738 -0.25 36.375 C-6.16109953 31.2671072 -11.40250581 25.30886427 -16 19 C-14.35437425 14.95896636 -11.50767109 12.06698427 -8.5625 8.9375 C-8.07201172 8.40833984 -7.58152344 7.87917969 -7.07617188 7.33398438 C-4.76143767 4.84431749 -2.42853755 2.37914357 0 0 Z " fill="#E31801" transform="translate(95,129)"/>
<path d="M0 0 C1.2065625 0.07992187 2.413125 0.15984375 3.65625 0.2421875 C6.77418847 0.46586569 9.88679844 0.7188076 13 1 C13 1.33 13 1.66 13 2 C12.31292969 2.04898438 11.62585938 2.09796875 10.91796875 2.1484375 C9.56638672 2.26058594 9.56638672 2.26058594 8.1875 2.375 C7.29417969 2.44460937 6.40085938 2.51421875 5.48046875 2.5859375 C2.75601501 2.86645036 2.75601501 2.86645036 0 5 C-0.66 4.34 -1.32 3.68 -2 3 C-15.53825988 1.76481663 -27.94695238 14.14081386 -38 22 C-38 21.01 -38 20.02 -38 19 C-37.34 19 -36.68 19 -36 19 C-36 18.34 -36 17.68 -36 17 C-35.01 17 -34.02 17 -33 17 C-32.67 15.68 -32.34 14.36 -32 13 C-31.34 13 -30.68 13 -30 13 C-30 12.34 -30 11.68 -30 11 C-29.01 11 -28.02 11 -27 11 C-27 10.34 -27 9.68 -27 9 C-25.35 8.67 -23.7 8.34 -22 8 C-21.67 7.01 -21.34 6.02 -21 5 C-14.54576499 -0.4424072 -8.07189261 -0.60735114 0 0 Z " fill="#FDB01F" transform="translate(151,92)"/>
<path d="M0 0 C0.7734375 0.433125 0.7734375 0.433125 1.5625 0.875 C4.10972183 2.16862447 4.10972183 2.16862447 7.5625 2.6875 C11 4 11 4 12.6875 7.5 C13.120625 8.655 13.55375 9.81 14 11 C15.96672915 12.1500831 15.96672915 12.1500831 18 13 C21 17.28571429 21 17.28571429 21 20 C22.32 20.33 23.64 20.66 25 21 C25 21.66 25 22.32 25 23 C25.99 23 26.98 23 28 23 C29.52179102 20.78544895 29.52179102 20.78544895 31 18 C32.37698144 16.04905688 33.77334982 14.11167156 35.1875 12.1875 C35.90292969 11.21167969 36.61835938 10.23585937 37.35546875 9.23046875 C37.89816406 8.49441406 38.44085938 7.75835937 39 7 C39.495 7.99 39.495 7.99 40 9 C38.64831589 11.30563816 37.25693953 13.48663543 35.75 15.6875 C32.59133511 20.3258549 30.06741259 24.77105711 28 30 C27.49984375 29.34386719 26.9996875 28.68773437 26.484375 28.01171875 C22.61403648 23.31984611 18.35521556 18.99748805 14.13671875 14.61914062 C13.47800781 13.92626953 12.81929687 13.23339844 12.140625 12.51953125 C11.53766602 11.89151611 10.93470703 11.26350098 10.31347656 10.61645508 C9 9 9 9 9 7 C8.443125 6.95875 7.88625 6.9175 7.3125 6.875 C3.75969726 5.53069626 2.29041047 2.99025811 0 0 Z " fill="#22ACFB" transform="translate(233,120)"/>
<path d="M0 0 C4.39656173 -0.02465504 8.7930872 -0.04283842 13.18969727 -0.05493164 C14.68644918 -0.05997121 16.18319616 -0.06680287 17.67993164 -0.07543945 C19.82699807 -0.08752159 21.97399962 -0.09323191 24.12109375 -0.09765625 C26.06133423 -0.10551147 26.06133423 -0.10551147 28.04077148 -0.11352539 C31 0 31 0 32 1 C32.35591892 5.39528712 32.46928946 9.80339048 32.61254883 14.21020508 C32.68708608 16.42519958 32.77772799 18.63916168 32.86914062 20.85351562 C32.91765877 22.25517434 32.96521674 23.6568667 33.01171875 25.05859375 C33.08072388 26.98143188 33.08072388 26.98143188 33.15112305 28.94311523 C33 32 33 32 31 34 C23.58513397 34 17.73203918 31.8106049 12 27 C12 26.01 12 25.02 12 24 C12.64066406 24.433125 13.28132812 24.86625 13.94140625 25.3125 C19.22684304 28.71534455 22.67477462 30.8250294 29 30 C30.25406138 24.21354356 30.11186913 18.51131884 30.0625 12.625 C30.05798828 11.60277344 30.05347656 10.58054688 30.04882812 9.52734375 C30.037103 7.01816806 30.02069176 4.5091151 30 2 C29.19780029 2.01047363 28.39560059 2.02094727 27.5690918 2.03173828 C23.94192628 2.07325767 20.31481072 2.09931343 16.6875 2.125 C15.42486328 2.14175781 14.16222656 2.15851563 12.86132812 2.17578125 C11.04858398 2.18544922 11.04858398 2.18544922 9.19921875 2.1953125 C8.08377686 2.20578613 6.96833496 2.21625977 5.8190918 2.22705078 C3 2 3 2 0 0 Z " fill="#E80805" transform="translate(118,167)"/>
<path d="M0 0 C3.60583603 3.07998494 7.19756624 6.17109164 10.75 9.3125 C21.36257538 18.57328346 32.52762827 26.84443821 44 35 C43.01 35.495 43.01 35.495 42 36 C39.875 35.0625 39.875 35.0625 38 34 C38 33.34 38 32.68 38 32 C37.401875 31.87625 36.80375 31.7525 36.1875 31.625 C34 31 34 31 31 29 C31 28.34 31 27.68 31 27 C29.948125 26.9071875 29.948125 26.9071875 28.875 26.8125 C24.96145722 25.70649878 23.0341977 23.69706462 20 21 C19.34 20.67 18.68 20.34 18 20 C18 19.34 18 18.68 18 18 C17.34 18 16.68 18 16 18 C14.84049742 16.87460044 13.68801311 15.74096724 12.57421875 14.5703125 C10.05733919 12.0596783 7.30339014 9.82593153 4.57421875 7.55078125 C4.05472656 7.03902344 3.53523438 6.52726563 3 6 C3 5.34 3 4.68 3 4 C2.34 4 1.68 4 1 4 C0.67 2.68 0.34 1.36 0 0 Z " fill="#FE5414" transform="translate(90,161)"/>
<path d="M0 0 C0.99 0.33 1.98 0.66 3 1 C3.33 3.64 3.66 6.28 4 9 C4.99 9.33 5.98 9.66 7 10 C7.66666667 11.66666667 8.33333333 13.33333333 9 15 C9.99 15.33 10.98 15.66 12 16 C12.06058594 16.60328125 12.12117188 17.2065625 12.18359375 17.828125 C12.26738281 18.62734375 12.35117188 19.4265625 12.4375 20.25 C12.55931641 21.43335938 12.55931641 21.43335938 12.68359375 22.640625 C12.97634993 24.82364639 13.42064419 26.8773182 14 29 C10.50354483 25.76818479 7.85052157 22.14757763 5.25 18.1875 C4.83878906 17.59646484 4.42757812 17.00542969 4.00390625 16.39648438 C1.1962332 12.11968008 0.61711874 9.23271058 1 4 C0.57145005 1.68963085 0.57145005 1.68963085 0 0 Z " fill="#F6C71C" transform="translate(62,115)"/>
<path d="M0 0 C3.55780196 0.60990891 6.6828589 1.5783681 10 3 C10 3.66 10 4.32 10 5 C11.299375 5.144375 12.59875 5.28875 13.9375 5.4375 C17.875 5.875 17.875 5.875 19 7 C20.70772358 7.08713831 22.41898649 7.10700007 24.12890625 7.09765625 C25.16337891 7.09443359 26.19785156 7.09121094 27.26367188 7.08789062 C28.35228516 7.07951172 29.44089844 7.07113281 30.5625 7.0625 C31.65498047 7.05798828 32.74746094 7.05347656 33.87304688 7.04882812 C36.58208495 7.03699826 39.29101599 7.02051543 42 7 C42 6.34 42 5.68 42 5 C42.99 5 43.98 5 45 5 C45.33 4.34 45.66 3.68 46 3 C47.66666667 3 49.33333333 3 51 3 C51 3.66 51 4.32 51 5 C43.50292208 8.65916431 37.16408625 9.59911112 28.875 9.4375 C27.84246094 9.44458984 26.80992187 9.45167969 25.74609375 9.45898438 C19.44232919 9.4067876 14.74881829 8.58632805 9 6 C8.236875 5.68675781 7.47375 5.37351562 6.6875 5.05078125 C5.125 4.3671875 3.5625 3.68359375 2 3 C2 2.34 2 1.68 2 1 C1.34 0.67 0.68 0.34 0 0 Z " fill="#6562E2" transform="translate(190,256)"/>
<path d="M0 0 C0.66 0 1.32 0 2 0 C2.02505615 0.85754883 2.0501123 1.71509766 2.07592773 2.59863281 C2.17123412 5.7893437 2.27045751 8.97990219 2.37231445 12.17041016 C2.4155455 13.54959378 2.45722866 14.92882685 2.49731445 16.30810547 C2.55530403 18.29406938 2.61937723 20.27985269 2.68359375 22.265625 C2.72025146 23.45961914 2.75690918 24.65361328 2.79467773 25.88378906 C2.91894104 29.18074351 2.91894104 29.18074351 4 33 C11.26 33.33 18.52 33.66 26 34 C26.33 34.66 26.66 35.32 27 36 C23.41673499 36.05814085 19.83359162 36.09364357 16.25 36.125 C15.23421875 36.14175781 14.2184375 36.15851563 13.171875 36.17578125 C12.1921875 36.18222656 11.2125 36.18867188 10.203125 36.1953125 C8.85202637 36.21102295 8.85202637 36.21102295 7.47363281 36.22705078 C5 36 5 36 1 34 C0.67 22.78 0.34 11.56 0 0 Z " fill="#5354A9" transform="translate(185,95)"/>
<path d="M0 0 C0.66 0 1.32 0 2 0 C2 0.66 2 1.32 2 2 C0.29233767 3.30724495 -1.46781811 4.54632741 -3.25 5.75 C-7.69536513 8.8919226 -10.34200716 11.3219326 -13 16 C-14.9375 18.375 -14.9375 18.375 -17 20 C-19.75 20.25 -19.75 20.25 -22 20 C-22 20.99 -22 21.98 -22 23 C-23.32 22.67 -24.64 22.34 -26 22 C-18.81016121 15.18584648 -11.44466827 8.84503993 -3.51953125 2.8984375 C-1.18353827 1.22994314 -1.18353827 1.22994314 0 0 Z " fill="#E21001" transform="translate(122,106)"/>
<path d="M0 0 C6.97669157 -0.39325819 12.51656189 0.36903961 19 3 C19 3.66 19 4.32 19 5 C19.680625 5.226875 20.36125 5.45375 21.0625 5.6875 C27.97350188 8.77539445 33.79802974 13.69704461 38 20 C34.78643736 18.58225178 32.09064664 16.66277587 29.2800293 14.57177734 C15.5320587 4.23004734 15.5320587 4.23004734 -1 2 C-0.67 1.34 -0.34 0.68 0 0 Z " fill="#24AAFC" transform="translate(187,93)"/>
<path d="M0 0 C3.29090089 6.27609881 3.20726804 12.6810557 3.25 19.625 C3.270625 20.470625 3.29125 21.31625 3.3125 22.1875 C3.33475041 25.71418931 3.30271223 28.32934463 1.83984375 31.5703125 C-0.73502759 33.57116794 -2.46811524 33.40150046 -5.6875 33.25 C-6.68136719 33.21390625 -7.67523438 33.1778125 -8.69921875 33.140625 C-9.45847656 33.09421875 -10.21773437 33.0478125 -11 33 C-11 32.67 -11 32.34 -11 32 C-10.28972656 31.95101562 -9.57945312 31.90203125 -8.84765625 31.8515625 C-7.92855469 31.77679688 -7.00945312 31.70203125 -6.0625 31.625 C-4.68771484 31.52058594 -4.68771484 31.52058594 -3.28515625 31.4140625 C-2.53105469 31.27742188 -1.77695313 31.14078125 -1 31 C0.43509221 28.12981559 0.11158506 25.66456277 0.09765625 22.4609375 C0.09282227 20.50800781 0.09282227 20.50800781 0.08789062 18.515625 C0.07953466 17.13541601 0.07106971 15.75520768 0.0625 14.375 C0.05748501 12.98698074 0.0529221 11.59895978 0.04882812 10.2109375 C0.03700976 6.80724868 0.02053434 3.40364561 0 0 Z " fill="#CDB245" transform="translate(165,62)"/>
<path d="M0 0 C0.66 0 1.32 0 2 0 C1.47731534 2.76276177 0.89130413 5.3260876 0 8 C-0.99 8 -1.98 8 -3 8 C-7.36721431 16.06254949 -8.83204844 23.98616207 -10 33 C-10.33 33 -10.66 33 -11 33 C-11.58348645 21.33027105 -8.820634 11.53748822 -2 2 C-1.34 1.34 -0.68 0.68 0 0 Z " fill="#28A6C0" transform="translate(182,43)"/>
<path d="M0 0 C0 0.33 0 0.66 0 1 C-0.58378418 1.0093457 -1.16756836 1.01869141 -1.76904297 1.02832031 C-16.93421332 1.03328499 -16.93421332 1.03328499 -31 6 C-31.80695313 6.41894531 -32.61390625 6.83789062 -33.4453125 7.26953125 C-37.1988069 9.26696959 -40.63380274 11.39610302 -44 14 C-44.66 13.67 -45.32 13.34 -46 13 C-31.97641561 2.20052941 -17.91433185 -3.67473474 0 0 Z " fill="#3AA7BF" transform="translate(229,28)"/>
<path d="M0 0 C0.66 0.99 1.32 1.98 2 3 C-1.71958362 2.01317169 -5.08018767 0.96543635 -8.625 -0.5625 C-11.49133246 -1.78334531 -13.93971039 -2.53631976 -17 -3 C-17 -3.66 -17 -4.32 -17 -5 C-29.375 -4.505 -29.375 -4.505 -42 -4 C-30.47462878 -11.68358081 -11.20732942 -6.03933837 0 0 Z " fill="#DEBA4D" transform="translate(146,34)"/>
<path d="M0 0 C7.56828661 6.67789995 12.02018163 14.94053137 13 25 C13.12242267 27.69329872 13.09992843 30.30193232 13 33 C12.67 33 12.34 33 12 33 C11.84144531 32.10539062 11.68289063 31.21078125 11.51953125 30.2890625 C10.15654656 23.22563909 8.51758682 17.17882726 4.98828125 10.890625 C4 9 4 9 4 7 C3.34 7 2.68 7 2 7 C0 4 0 4 0 0 Z " fill="#26AAC8" transform="translate(267,51)"/>
<path d="M0 0 C4.1869344 3.51123317 8.13390994 7.13390994 12 11 C12.99 11.66 13.98 12.32 15 13 C15 13.99 15 14.98 15 16 C15.928125 16.2165625 15.928125 16.2165625 16.875 16.4375 C19 17 19 17 21 18 C22.04808041 19.97522846 23.0520411 21.97481509 24 24 C19.82610898 22.33450577 16.88731183 19.29700016 13.6875 16.25 C10.1068085 12.87166703 6.54389136 9.56614723 2.6875 6.5 C1.800625 5.675 0.91375 4.85 0 4 C0 2.68 0 1.36 0 0 Z " fill="#EA1401" transform="translate(92,159)"/>
<path d="M0 0 C14.18181818 2.18181818 14.18181818 2.18181818 16 4 C17.77869726 4.15764405 19.56318476 4.25100677 21.34765625 4.31640625 C22.42724609 4.35830078 23.50683594 4.40019531 24.61914062 4.44335938 C26.32360352 4.50233398 26.32360352 4.50233398 28.0625 4.5625 C29.20267578 4.60568359 30.34285156 4.64886719 31.51757812 4.69335938 C34.34492195 4.79982839 37.17235738 4.90184207 40 5 C40 5.33 40 5.66 40 6 C26.3142908 8.55961982 12.55629147 7.13214234 0 1 C0 0.67 0 0.34 0 0 Z " fill="#CD662A" transform="translate(92,260)"/>
<path d="M0 0 C10.88978302 2.76190149 18.86602305 9.52492062 27 17 C26.67 17.66 26.34 18.32 26 19 C25.28714844 18.39671875 24.57429688 17.7934375 23.83984375 17.171875 C18.72918727 12.90726259 13.87918921 9.10598675 8 6 C6.5132046 5.11688571 5.03411652 4.22068292 3.5625 3.3125 C2.88316406 2.89613281 2.20382813 2.47976562 1.50390625 2.05078125 C1.00761719 1.70402344 0.51132813 1.35726562 0 1 C0 0.67 0 0.34 0 0 Z " fill="#2CAEC8" transform="translate(240,32)"/>
<path d="M0 0 C0.66 0 1.32 0 2 0 C3.78770907 2.1335282 5.46872824 4.26844058 7.125 6.5 C7.59292969 7.12003906 8.06085938 7.74007812 8.54296875 8.37890625 C9.70096609 9.91502517 10.85121357 11.45698059 12 13 C11.01 13.495 11.01 13.495 10 14 C8.29115995 12.37660195 6.62553283 10.70680947 5 9 C5 8.34 5 7.68 5 7 C3.35 6.67 1.7 6.34 0 6 C-0.433125 6.804375 -0.86625 7.60875 -1.3125 8.4375 C-3 11 -3 11 -6 12 C-4.74209441 8.51656912 -3.24326489 5.92599768 -1 3 C-0.67 2.01 -0.34 1.02 0 0 Z " fill="#F95415" transform="translate(77,146)"/>
<path d="M0 0 C0.66 0 1.32 0 2 0 C4.23366929 7.64808364 3.26544416 15.49571621 1 23 C0.67 23 0.34 23 0 23 C0 15.41 0 7.82 0 0 Z " fill="#EA6810" transform="translate(163,211)"/>
<path d="M0 0 C4.29 0.33 8.58 0.66 13 1 C13 3.64 13 6.28 13 9 C12.525625 8.360625 12.05125 7.72125 11.5625 7.0625 C7.94579965 4.15149728 4.52795106 4.19350218 0 4 C0 2.68 0 1.36 0 0 Z " fill="#DF6420" transform="translate(152,199)"/>
<path d="M0 0 C7.88822665 3.37313923 12.57033486 11.36798066 16.28515625 18.73828125 C17.09050849 21.28636292 16.90162733 22.52194251 16 25 C13.96564469 21.27034861 13 19.33094958 13 15 C12.34 15 11.68 15 11 15 C11 14.01 11 13.02 11 12 C10.34 12 9.68 12 9 12 C8.67 11.01 8.34 10.02 8 9 C7.21625 8.38125 6.4325 7.7625 5.625 7.125 C2.93658366 4.94866296 1.60026627 3.03208347 0 0 Z " fill="#DDB634" transform="translate(148,37)"/>
<path d="M0 0 C1.18785791 3.56357374 0.48450142 4.91439417 -1.04296875 8.234375 C-2.40313612 10.74374501 -4.1655371 12.8215753 -6 15 C-6.53625 15.9075 -7.0725 16.815 -7.625 17.75 C-9 20 -9 20 -11 21 C-10.35550393 17.98782888 -9.34977818 15.48344164 -7.9375 12.75 C-7.57527344 12.04359375 -7.21304687 11.3371875 -6.83984375 10.609375 C-6.56269531 10.07828125 -6.28554688 9.5471875 -6 9 C-5.01 9 -4.02 9 -3 9 C-3.061875 8.2575 -3.12375 7.515 -3.1875 6.75 C-2.96905704 3.54616994 -2.09749995 2.35968744 0 0 Z " fill="#15BBE2" transform="translate(274,118)"/>
<path d="M0 0 C0.33 0 0.66 0 1 0 C1.63789884 10.34813679 -0.16961632 19.15683532 -3 29 C-3.66 29 -4.32 29 -5 29 C-4.125 22.125 -4.125 22.125 -3 21 C-2.81230502 19.35841378 -2.67578371 17.71089362 -2.5625 16.0625 C-2.1190237 10.5977275 -1.19444343 5.34600409 0 0 Z " fill="#6864DF" transform="translate(280,199)"/>
<path d="M0 0 C0.78503906 0.49371094 1.57007813 0.98742187 2.37890625 1.49609375 C10.16973729 6.36345882 10.16973729 6.36345882 19 8 C19.33 7.01 19.66 6.02 20 5 C20 6.32 20 7.64 20 9 C19.67 9.33 19.34 9.66 19 10 C11.56291917 9.8819511 5.76732282 7.84021665 0 3 C0 2.01 0 1.02 0 0 Z " fill="#E71902" transform="translate(130,191)"/>
<path d="M0 0 C1.32 0.33 2.64 0.66 4 1 C2.625 2.5 2.625 2.5 1 4 C0.34 4 -0.32 4 -1 4 C-1.20625 4.53625 -1.4125 5.0725 -1.625 5.625 C-2.9259713 7.87213225 -4.05979831 9.07457759 -5.9375 10.8125 C-9.16419941 13.89719308 -10.49673067 16.82425187 -12 21 C-12.6875 19.3125 -12.6875 19.3125 -13 17 C-10.98509388 13.07588776 -8.3654416 10.03185163 -5.375 6.8125 C-2.33478018 3.65084065 -2.33478018 3.65084065 0 0 Z " fill="#EA0702" transform="translate(96,129)"/>
<path d="M0 0 C0.33 0.66 0.66 1.32 1 2 C-0.35168411 4.30563816 -1.74306047 6.48663543 -3.25 8.6875 C-6.40866489 13.3258549 -8.93258741 17.77105711 -11 23 C-11.66 22.34 -12.32 21.68 -13 21 C-12.47168046 13.60352649 -4.16682474 5.68387258 0 0 Z " fill="#3DA2C2" transform="translate(272,127)"/>
<path d="M0 0 C0.33 0 0.66 0 1 0 C0.98952637 0.66531738 0.97905273 1.33063477 0.96826172 2.01611328 C0.92649535 5.0523699 0.90060848 8.08856586 0.875 11.125 C0.84986328 12.69507812 0.84986328 12.69507812 0.82421875 14.296875 C0.79032655 19.6518423 0.961475 23.96739141 3 29 C3.125 32.375 3.125 32.375 3 35 C-1.07646684 30.92353316 -1.12839301 25.63223254 -1.23046875 20.13671875 C-1.22651452 17.98693509 -1.21194244 15.83714834 -1.1875 13.6875 C-1.18685547 12.59115234 -1.18621094 11.49480469 -1.18554688 10.36523438 C-1.14066399 2.28132798 -1.14066399 2.28132798 0 0 Z " fill="#F5C812" transform="translate(59,79)"/>
<path d="M0 0 C0.66 0 1.32 0 2 0 C1.58446466 3.40738983 0.99415697 6.01217297 -0.5 9.125 C-2.80803494 14.1126072 -2.74237842 19.58994674 -3 25 C-3.66 25 -4.32 25 -5 25 C-5.59033894 16.44008543 -3.86199157 7.72398314 0 0 Z " fill="#CF6D30" transform="translate(61,175)"/>
<path d="M0 0 C2.29225435 0.11371497 4.58382388 0.24130964 6.875 0.375 C8.15117187 0.44460937 9.42734375 0.51421875 10.7421875 0.5859375 C14 1 14 1 16 3 C12.53812293 5.30791804 11.46800874 5.20774506 7.4375 4.875 C6.46683594 4.81054688 5.49617187 4.74609375 4.49609375 4.6796875 C2 4 2 4 0.66015625 1.9453125 C0.44230469 1.30335937 0.22445312 0.66140625 0 0 Z " fill="#2AA9C8" transform="translate(171,91)"/>
<path d="M0 0 C1.32 0.33 2.64 0.66 4 1 C1.71046156 2.98167622 -0.58149798 4.96042047 -2.875 6.9375 C-3.85146484 7.78344727 -3.85146484 7.78344727 -4.84765625 8.64648438 C-5.47285156 9.18466797 -6.09804687 9.72285156 -6.7421875 10.27734375 C-7.3182373 10.77484131 -7.89428711 11.27233887 -8.48779297 11.78491211 C-10 13 -10 13 -12 14 C-12 13.01 -12 12.02 -12 11 C-11.34 11 -10.68 11 -10 11 C-9.79375 10.443125 -9.5875 9.88625 -9.375 9.3125 C-7.42316968 6.02987629 -5.05769006 4.29326754 -2 2 C-1.34 2 -0.68 2 0 2 C0 1.34 0 0.68 0 0 Z " fill="#FEA525" transform="translate(108,114)"/>
<path d="M0 0 C1.59811523 0.02030273 1.59811523 0.02030273 3.22851562 0.04101562 C5.84037588 0.07615276 8.45116634 0.12534816 11.0625 0.1875 C11.0625 0.5175 11.0625 0.8475 11.0625 1.1875 C10.37542969 1.23648438 9.68835938 1.28546875 8.98046875 1.3359375 C7.62888672 1.44808594 7.62888672 1.44808594 6.25 1.5625 C5.35667969 1.63210937 4.46335938 1.70171875 3.54296875 1.7734375 C0.81851501 2.05395036 0.81851501 2.05395036 -1.9375 4.1875 C-2.5975 3.5275 -3.2575 2.8675 -3.9375 2.1875 C-9.22898994 1.67870289 -12.34396797 2.62366817 -16.9375 5.1875 C-17.5975 5.1875 -18.2575 5.1875 -18.9375 5.1875 C-18.9375 4.5275 -18.9375 3.8675 -18.9375 3.1875 C-12.61520718 -0.22922846 -7.08632651 -0.1715498 0 0 Z " fill="#F39E2E" transform="translate(152.9375,92.8125)"/>
<path d="M0 0 C0.99580078 0.32484375 0.99580078 0.32484375 2.01171875 0.65625 C3.33623047 1.07390625 3.33623047 1.07390625 4.6875 1.5 C5.55761719 1.7784375 6.42773438 2.056875 7.32421875 2.34375 C11.2986234 3.3184945 14.1172985 3.29423383 18 2 C18 2.99 18 3.98 18 5 C11.93179132 6.08360869 7.89893243 5.79074734 2 4 C2 3.34 2 2.68 2 2 C1.34 2 0.68 2 0 2 C0 1.34 0 0.68 0 0 Z " fill="#FC5811" transform="translate(134,197)"/>
<path d="M0 0 C2 2 2 2 2 6 C2.66 6 3.32 6 4 6 C6.21854707 10.62197306 7.38281159 13.76824163 7 19 C4.3458221 15.84388587 3.07732936 12.84829424 1.8125 8.9375 C1.46832031 7.89464844 1.12414063 6.85179688 0.76953125 5.77734375 C0 3 0 3 0 0 Z " fill="#DDC04C" transform="translate(57,106)"/>
<path d="M0 0 C0.66 0 1.32 0 2 0 C2 0.66 2 1.32 2 2 C2.99 2.33 3.98 2.66 5 3 C5.804375 3.969375 6.60875 4.93875 7.4375 5.9375 C9.80270161 8.76420437 10.87435172 9.49106635 14 11 C15.25 13.125 15.25 13.125 16 15 C11.54275753 13.5810577 9.00509702 11.38094472 5.75 8.0625 C4.87859375 7.18722656 4.0071875 6.31195313 3.109375 5.41015625 C1 3 1 3 0 0 Z " fill="#6663B1" transform="translate(178,246)"/>
<path d="M0 0 C2.36383008 3.0744293 4.52168633 6.24210138 6.625 9.5 C7.23601562 10.4384375 7.84703125 11.376875 8.4765625 12.34375 C9.80169357 14.65423494 10.54674116 16.40294936 11 19 C7.55942906 15.84679051 5.10325842 12.33207412 2.6875 8.375 C2.31560547 7.78976563 1.94371094 7.20453125 1.56054688 6.6015625 C0.64010271 5.10691202 -0.18825721 3.55636473 -1 2 C-0.67 1.34 -0.34 0.68 0 0 Z " fill="#E0BF47" transform="translate(65,125)"/>
<path d="M0 0 C6.84588643 2.10298472 12.31269139 4.57653775 18 9 C13.80530429 8.40075776 9.99000166 7.42500059 6 6 C6 5.34 6 4.68 6 4 C5.195625 3.71125 4.39125 3.4225 3.5625 3.125 C1 2 1 2 0 0 Z " fill="#ED6310" transform="translate(86,254)"/>
<path d="M0 0 C0.66 0 1.32 0 2 0 C3.41933513 4.25800538 3.72651677 8.22911538 2 12.4375 C1.67 12.953125 1.34 13.46875 1 14 C0.67 14 0.34 14 0 14 C0 9.38 0 4.76 0 0 Z " fill="#CE5C2A" transform="translate(165,201)"/>
<path d="M0 0 C0.66 0 1.32 0 2 0 C2 0.66 2 1.32 2 2 C0.25522851 3.37422638 -1.54715813 4.67586622 -3.375 5.9375 C-7.71611502 8.93506278 -7.71611502 8.93506278 -11 13 C-12.32 12.67 -13.64 12.34 -15 12 C-14.00097656 11.21753906 -13.00195312 10.43507813 -11.97265625 9.62890625 C-10.66924354 8.60680564 -9.36585961 7.58466832 -8.0625 6.5625 C-7.40314453 6.04623047 -6.74378906 5.52996094 -6.06445312 4.99804688 C-5.43603516 4.50498047 -4.80761719 4.01191406 -4.16015625 3.50390625 C-3.57886963 3.04830322 -2.99758301 2.5927002 -2.39868164 2.12329102 C-1.02763998 1.06382373 -1.02763998 1.06382373 0 0 Z " fill="#D72A01" transform="translate(122,106)"/>
<path d="M0 0 C2 0 2 0 3.515625 1.46875 C7.5377351 6.1793294 11.36041233 10.98723457 15 16 C10.97752394 14.41538822 8.66983444 11.74059872 5.8125 8.5625 C4.93207031 7.59441406 4.05164063 6.62632812 3.14453125 5.62890625 C1 3 1 3 0 0 Z " fill="#1C66E3" transform="translate(240,127)"/>
<path d="M0 0 C0.66 0.66 1.32 1.32 2 2 C4.42246595 2.37095708 4.42246595 2.37095708 7.2265625 2.4140625 C8.7734375 2.47207031 8.7734375 2.47207031 10.3515625 2.53125 C11.97191406 2.57765625 11.97191406 2.57765625 13.625 2.625 C14.71296875 2.66367188 15.8009375 2.70234375 16.921875 2.7421875 C19.61441165 2.83666247 22.30693757 2.92222431 25 3 C25.33 3.99 25.66 4.98 26 6 C25.01 5.67 24.02 5.34 23 5 C21.30132812 4.85222064 19.59822511 4.75252934 17.89453125 4.68359375 C16.91162109 4.64169922 15.92871094 4.59980469 14.91601562 4.55664062 C13.89185547 4.51732422 12.86769531 4.47800781 11.8125 4.4375 C10.77673828 4.39431641 9.74097656 4.35113281 8.67382812 4.30664062 C6.1160181 4.20055634 3.55811155 4.09849854 1 4 C0.67 2.68 0.34 1.36 0 0 Z " fill="#4844CF" transform="translate(188,125)"/>
<path d="M0 0 C0 0.66 0 1.32 0 2 C-1.79296875 3.47265625 -1.79296875 3.47265625 -4.1875 5.0625 C-4.96480469 5.58972656 -5.74210938 6.11695312 -6.54296875 6.66015625 C-9.06985506 8.03809267 -11.16642955 8.59232823 -14 9 C-10.44113418 5.11760093 -5.62095916 0 0 0 Z " fill="#D82701" transform="translate(138,97)"/>
<path d="M0 0 C0.66 0 1.32 0 2 0 C2.33 1.98 2.66 3.96 3 6 C3.66 6 4.32 6 5 6 C5.33 7.65 5.66 9.3 6 11 C6.66 11 7.32 11 8 11 C7.67 11.99 7.34 12.98 7 14 C6.01 14 5.02 14 4 14 C3.87882812 13.36191406 3.75765625 12.72382813 3.6328125 12.06640625 C3.46523438 11.24011719 3.29765625 10.41382813 3.125 9.5625 C2.96257812 8.73878906 2.80015625 7.91507813 2.6328125 7.06640625 C2.42398437 6.38449219 2.21515625 5.70257813 2 5 C1.34 4.67 0.68 4.34 0 4 C0 2.68 0 1.36 0 0 Z " fill="#6463E0" transform="translate(266,160)"/>
<path d="M0 0 C0 4.33174693 -2.65822583 6.22353653 -5.5 9.1875 C-6.28697266 10.02571289 -6.28697266 10.02571289 -7.08984375 10.88085938 C-8.38661613 12.26015364 -9.69246259 13.63090644 -11 15 C-11.66 14.67 -12.32 14.34 -13 14 C-11.58474822 12.41540185 -10.1677358 10.83237609 -8.75 9.25 C-7.96109375 8.36828125 -7.1721875 7.4865625 -6.359375 6.578125 C-4.29407328 4.32133835 -2.18264936 2.14260074 0 0 Z " fill="#D52B01" transform="translate(95,129)"/>
<path d="M0 0 C1.921875 0.7109375 1.921875 0.7109375 4 2 C6.226549 7.65039321 6.22193173 14.00784332 6 20 C5.67 20 5.34 20 5 20 C4.80664062 19.05898437 4.61328125 18.11796875 4.4140625 17.1484375 C4.15367187 15.90320313 3.89328125 14.65796875 3.625 13.375 C3.36976563 12.14523438 3.11453125 10.91546875 2.8515625 9.6484375 C2.07977727 6.34179804 1.13180625 3.19858287 0 0 Z " fill="#18B6DB" transform="translate(274,64)"/>
<path d="M0 0 C0.33 0.99 0.66 1.98 1 3 C0.34 3 -0.32 3 -1 3 C-1.33 3.99 -1.66 4.98 -2 6 C-2.66 6 -3.32 6 -4 6 C-4.33 6.99 -4.66 7.98 -5 9 C-8.0625 10.1875 -8.0625 10.1875 -11 11 C-9.625 9.5 -9.625 9.5 -8 8 C-7.34 8 -6.68 8 -6 8 C-5.7525 7.05125 -5.505 6.1025 -5.25 5.125 C-4 2 -4 2 -1.875 0.625 C-1.25625 0.41875 -0.6375 0.2125 0 0 Z " fill="#F1660F" transform="translate(155,247)"/>
<path d="M0 0 C0.33 0.99 0.66 1.98 1 3 C0.34 3.66 -0.32 4.32 -1 5 C-1.69356423 7.32548007 -2.36149212 9.65880445 -3 12 C-3.33 12.33 -3.66 12.66 -4 13 C-4.36760731 15.32817964 -4.70241581 17.6618385 -5 20 C-5.33 20 -5.66 20 -6 20 C-6.57535802 12.08882721 -4.37006472 6.55509708 0 0 Z " fill="#16BDE4" transform="translate(179,51)"/>
<path d="M0 0 C7.08954004 -0.65643889 12.01400766 1.14936165 18 5 C18.33 5.66 18.66 6.32 19 7 C15.28041638 6.01317169 11.91981233 4.96543635 8.375 3.4375 C5.50866754 2.21665469 3.06028961 1.46368024 0 1 C0 0.67 0 0.34 0 0 Z " fill="#E1B935" transform="translate(129,30)"/>
<path d="M0 0 C-3.04088255 1.59101028 -5.62803675 2.35772129 -9 3 C-9.99 3.33 -10.98 3.66 -12 4 C-14.66883815 4.88961272 -17.23434212 5.51194273 -20 6 C-13.33156525 0.28419878 -8.54727922 -0.29873986 0 0 Z " fill="#19BDE5" transform="translate(214,30)"/>
<path d="M0 0 C0.66 0.33 1.32 0.66 2 1 C-0.31 3.97 -2.62 6.94 -5 10 C-5.66 9.67 -6.32 9.34 -7 9 C-6.67 8.01 -6.34 7.02 -6 6 C-6.66 5.67 -7.32 5.34 -8 5 C-7.05125 4.54625 -6.1025 4.0925 -5.125 3.625 C-1.99686321 2.19761746 -1.99686321 2.19761746 0 0 Z " fill="#11BDE7" transform="translate(190,37)"/>
<path d="M0 0 C0.79921875 0.01804687 1.5984375 0.03609375 2.421875 0.0546875 C3.02515625 0.07789062 3.6284375 0.10109375 4.25 0.125 C4.25 0.455 4.25 0.785 4.25 1.125 C2.23177083 1.58072917 0.21354167 2.03645833 -1.8046875 2.4921875 C-3.95719964 3.02974428 -3.95719964 3.02974428 -5.75 5.125 C-8.875 5.25 -8.875 5.25 -11.75 5.125 C-8.24137427 1.26551169 -5.23049958 -0.15383822 0 0 Z " fill="#F6C819" transform="translate(106.75,30.875)"/>
<path d="M0 0 C0.33 0 0.66 0 1 0 C1 7.26 1 14.52 1 22 C0.67 22 0.34 22 0 22 C0 16.72 0 11.44 0 6 C-0.66 6 -1.32 6 -2 6 C-1.34 4.02 -0.68 2.04 0 0 Z " fill="#705CCA" transform="translate(172,204)"/>
<path d="M0 0 C0.99 0 1.98 0 3 0 C2 3 2 3 -0.21484375 4.38671875 C-1.56255859 5.03060547 -1.56255859 5.03060547 -2.9375 5.6875 C-3.83339844 6.12449219 -4.72929687 6.56148438 -5.65234375 7.01171875 C-8 8 -8 8 -10 8 C-10 7.34 -10 6.68 -10 6 C-8.906875 5.566875 -7.81375 5.13375 -6.6875 4.6875 C-3.84239149 3.48534148 -2.13551531 2.24229108 0 0 Z " fill="#6562DD" transform="translate(252,252)"/>
<path d="M0 0 C2.35729943 2.19138979 4.02057098 4.43931973 5.6875 7.1875 C6.12449219 7.90292969 6.56148438 8.61835938 7.01171875 9.35546875 C7.33785156 9.89816406 7.66398437 10.44085938 8 11 C6.125 10.6875 6.125 10.6875 4 10 C2 7 2 7 2 4 C1.34 4 0.68 4 0 4 C-0.33 3.01 -0.66 2.02 -1 1 C-0.67 0.67 -0.34 0.34 0 0 Z " fill="#5A5CBA" transform="translate(261,149)"/>
<path d="M0 0 C0.66 0.33 1.32 0.66 2 1 C-0.8475202 5.05224029 -3.36660757 7.1869334 -8 9 C-8.66 8.67 -9.32 8.34 -10 8 C-6.7 5.36 -3.4 2.72 0 0 Z " fill="#EB0800" transform="translate(122,108)"/>
<path d="M0 0 C1.41687119 4.25061356 0.19320039 6.71851625 -1 11 C-2.65 11.33 -4.3 11.66 -6 12 C-5 9 -5 9 -2 7 C-0.7811879 3.44327821 -0.7811879 3.44327821 0 0 Z " fill="#D76E17" transform="translate(162,235)"/>
<path d="M0 0 C0.66 0 1.32 0 2 0 C-0.15317287 8.35010941 -0.15317287 8.35010941 -3.6875 11.0625 C-4.450625 11.371875 -5.21375 11.68125 -6 12 C-4.74209441 8.51656912 -3.24326489 5.92599768 -1 3 C-0.67 2.01 -0.34 1.02 0 0 Z " fill="#D2773A" transform="translate(77,146)"/>
<path d="M0 0 C3.63 0 7.26 0 11 0 C11 0.33 11 0.66 11 1 C9.35 1 7.7 1 6 1 C5.67 1.66 5.34 2.32 5 3 C4.01 3 3.02 3 2 3 C1.67 3.66 1.34 4.32 1 5 C0.01 5 -0.98 5 -2 5 C-2 4.34 -2 3.68 -2 3 C-1.34 3 -0.68 3 0 3 C0 2.01 0 1.02 0 0 Z " fill="#E50C00" transform="translate(138,96)"/>
<path d="M0 0 C0.33 0.99 0.66 1.98 1 3 C-1.15859924 6.83750975 -3.28595371 9.61239881 -7 12 C-6.50334288 7.40592168 -6.50334288 7.40592168 -4.0625 5.4375 C-3.381875 4.963125 -2.70125 4.48875 -2 4 C-0.7483533 1.91665365 -0.7483533 1.91665365 0 0 Z " fill="#EB6812" transform="translate(77,151)"/>
<path d="M0 0 C0.66 0.99 1.32 1.98 2 3 C1.3203125 5.48046875 1.3203125 5.48046875 0.125 8.1875 C-0.26429687 9.08855469 -0.65359375 9.98960938 -1.0546875 10.91796875 C-1.36664063 11.60503906 -1.67859375 12.29210937 -2 13 C-3.18771723 9.57056481 -2.80226223 7.62215325 -1.5625 4.25 C-1.27503906 3.45078125 -0.98757812 2.6515625 -0.69140625 1.828125 C-0.46324219 1.22484375 -0.23507813 0.6215625 0 0 Z " fill="#DEB843" transform="translate(60,65)"/>
<path d="M0 0 C1.125 3.75 1.125 3.75 0 6 C-0.66 6 -1.32 6 -2 6 C-1.938125 6.7425 -1.87625 7.485 -1.8125 8.25 C-2.03094296 11.45383006 -2.90250005 12.64031256 -5 15 C-4.31779879 9.40595005 -2.50643494 5.01286988 0 0 Z " fill="#F6C81B" transform="translate(64,63)"/>
<path d="M0 0 C-1.36983503 3.16115776 -1.9890638 3.9927092 -5 6 C-7.1875 5.625 -7.1875 5.625 -9 5 C-7.87926138 4.16094435 -6.75325453 3.32892169 -5.625 2.5 C-4.99851562 2.0359375 -4.37203125 1.571875 -3.7265625 1.09375 C-2 0 -2 0 0 0 Z " fill="#6562B7" transform="translate(265,246)"/>
<path d="M0 0 C0.66 0.66 1.32 1.32 2 2 C0 4 0 4 -2.0625 4.5 C-2.701875 4.665 -3.34125 4.83 -4 5 C-4.33 5.66 -4.66 6.32 -5 7 C-5.66 7 -6.32 7 -7 7 C-7 6.01 -7 5.02 -7 4 C-7.99 3.67 -8.98 3.34 -10 3 C-9.36191406 2.95101562 -8.72382813 2.90203125 -8.06640625 2.8515625 C-7.24011719 2.77679688 -6.41382813 2.70203125 -5.5625 2.625 C-4.73878906 2.55539063 -3.91507813 2.48578125 -3.06640625 2.4140625 C-2.38449219 2.27742187 -1.70257813 2.14078125 -1 2 C-0.67 1.34 -0.34 0.68 0 0 Z " fill="#6363E9" transform="translate(187,199)"/>
<path d="M0 0 C0.33 1.32 0.66 2.64 1 4 C-1.97 6.475 -1.97 6.475 -5 9 C-5 4.61031544 -2.87194899 3.23094261 0 0 Z " fill="#E2C543" transform="translate(72,48)"/>
<path d="M0 0 C1.9375 0.8125 1.9375 0.8125 4 2 C4.33 2.99 4.66 3.98 5 5 C5.99 5.66 6.98 6.32 8 7 C7.67 7.99 7.34 8.98 7 10 C6.01524786 8.90081184 5.03739527 7.7954398 4.0625 6.6875 C3.51722656 6.07261719 2.97195312 5.45773438 2.41015625 4.82421875 C1 3 1 3 0 0 Z " fill="#C76C37" transform="translate(64,235)"/>
<path d="M0 0 C1.32 0.33 2.64 0.66 4 1 C1.36 3.64 -1.28 6.28 -4 9 C-4 5.00095031 -2.27413033 3.19799578 0 0 Z " fill="#FE9F28" transform="translate(92,128)"/>
<path d="M0 0 C0.66 0.33 1.32 0.66 2 1 C0.35 2.98 -1.3 4.96 -3 7 C-4.32 6.67 -5.64 6.34 -7 6 C-6.360625 5.731875 -5.72125 5.46375 -5.0625 5.1875 C-2.66868314 4.11332248 -2.66868314 4.11332248 -2 1 C-1.34 0.67 -0.68 0.34 0 0 Z " fill="#F9A52E" transform="translate(83,139)"/>
<path d="M0 0 C0.6875 1.6875 0.6875 1.6875 1 4 C-1.26153846 8.63076923 -1.26153846 8.63076923 -4 10 C-3.29445932 6.33118845 -1.72264494 3.29549466 0 0 Z " fill="#0EBFEF" transform="translate(267,129)"/>
<path d="M0 0 C2.72647685 2.35468455 3.98756342 4.5408417 5 8 C4.546875 10.16015625 4.546875 10.16015625 4 12 C3.3291288 10.3767313 2.66342971 8.75132422 2 7.125 C1.62875 6.22007813 1.2575 5.31515625 0.875 4.3828125 C0 2 0 2 0 0 Z " fill="#D4AD3B" transform="translate(160,50)"/>
<path d="M0 0 C6.42857143 4.14285714 6.42857143 4.14285714 9 7 C8.67 7.66 8.34 8.32 8 9 C6.66079162 7.88200014 5.32877444 6.75538103 4 5.625 C2.88625 4.68527344 2.88625 4.68527344 1.75 3.7265625 C1.1725 3.15679687 0.595 2.58703125 0 2 C0 1.34 0 0.68 0 0 Z " fill="#32A3C1" transform="translate(258,42)"/>
<path d="M0 0 C0 0.99 0 1.98 0 3 C-1.8125 4.0625 -1.8125 4.0625 -4 5 C-4.99 4.67 -5.98 4.34 -7 4 C-4.82575883 1.49962266 -3.26954202 0.56371414 0 0 Z " fill="#0AC4F4" transform="translate(197,35)"/>
<path d="M0 0 C-3.00440021 2.00293347 -4.70993945 2.49271626 -8.1875 3.125 C-9.08855469 3.29257812 -9.98960938 3.46015625 -10.91796875 3.6328125 C-11.60503906 3.75398438 -12.29210937 3.87515625 -13 4 C-5.27825131 -1.95490789 -5.27825131 -1.95490789 0 0 Z " fill="#E0C14C" transform="translate(104,31)"/>
<path d="M0 0 C2.0625 0.4375 2.0625 0.4375 4 1 C0.79663178 3.83374881 -1.78087253 4.5205537 -6 5 C-5.195625 4.360625 -4.39125 3.72125 -3.5625 3.0625 C-1.7249496 1.59396498 -1.7249496 1.59396498 0 0 Z " fill="#CC692D" transform="translate(139,260)"/>
<path d="M0 0 C0.66 0 1.32 0 2 0 C2 0.66 2 1.32 2 2 C3.32 1.67 4.64 1.34 6 1 C6 2.32 6 3.64 6 5 C4.68 5 3.36 5 2 5 C1.34 3.35 0.68 1.7 0 0 Z " fill="#F5C11D" transform="translate(74,139)"/>
<path d="M0 0 C1.77007714 -0.08114106 3.54122098 -0.13925505 5.3125 -0.1875 C6.29863281 -0.22230469 7.28476563 -0.25710937 8.30078125 -0.29296875 C11 0 11 0 12.85546875 1.51171875 C13.23316406 2.00285156 13.61085937 2.49398437 14 3 C13.175 2.855625 12.35 2.71125 11.5 2.5625 C7.67313722 1.94746848 3.84783293 1.46439363 0 1 C0 0.67 0 0.34 0 0 Z " fill="#15BEFE" transform="translate(189,92)"/>
<path d="M0 0 C2 1.125 2 1.125 4 3 C4.25 6.1875 4.25 6.1875 4 9 C3.01 8.67 2.02 8.34 1 8 C1 7.01 1 6.02 1 5 C0.68911632 3.32900023 0.35919668 1.66128463 0 0 Z " fill="#6160E0" transform="translate(176,237)"/>
<path d="M0 0 C1.32 0 2.64 0 4 0 C2.63016497 3.16115776 2.0109362 3.9927092 -1 6 C-0.67 4.02 -0.34 2.04 0 0 Z " fill="#6662E0" transform="translate(268,235)"/>
<path d="M0 0 C0 0.66 0 1.32 0 2 C-0.99 2.66 -1.98 3.32 -3 4 C-3.33 4.99 -3.66 5.98 -4 7 C-5.32 6.67 -6.64 6.34 -8 6 C-7.0479279 4.99403703 -6.08812654 3.99538437 -5.125 3 C-4.59132813 2.443125 -4.05765625 1.88625 -3.5078125 1.3125 C-2 0 -2 0 0 0 Z " fill="#D82F02" transform="translate(104,122)"/>
<path d="M0 0 C0.66 0.33 1.32 0.66 2 1 C1.319375 1.61875 1.319375 1.61875 0.625 2.25 C-1.05950374 4.06408095 -1.99265971 5.75285627 -3 8 C-3.66 8 -4.32 8 -5 8 C-3.8141763 4.62496331 -2.72426311 2.35277269 0 0 Z " fill="#FEBD1C" transform="translate(89,131)"/>
</svg>
